<svg width="71" height="91" viewBox="0 0 71 91" fill="none" xmlns="http://www.w3.org/2000/svg">
<path d="M35.1112 90.1932C28.4634 90.1932 22.5685 89.0568 17.4265 86.7841C12.3129 84.483 8.27876 81.3153 5.32422 77.2812C2.36967 73.2472 0.863992 68.6023 0.807174 63.3466H22.0288C22.114 65.25 22.7248 66.9403 23.8612 68.4176C24.9975 69.8665 26.5458 71.0028 28.506 71.8267C30.4663 72.6506 32.6964 73.0625 35.1964 73.0625C37.6964 73.0625 39.8981 72.6222 41.8015 71.7415C43.7333 70.8324 45.239 69.5966 46.3185 68.0341C47.3981 66.4432 47.9237 64.625 47.8952 62.5795C47.9237 60.5341 47.3413 58.7159 46.1481 57.125C44.9549 55.5341 43.2646 54.2983 41.0771 53.4176C38.918 52.5369 36.3612 52.0966 33.4066 52.0966H24.9265V37.0966H33.4066C35.9918 37.0966 38.2646 36.6705 40.2248 35.8182C42.2134 34.9659 43.7617 33.7727 44.8697 32.2386C45.9776 30.6761 46.5174 28.8864 46.489 26.8693C46.5174 24.9091 46.0487 23.1903 45.0827 21.7131C44.1452 20.2074 42.8242 19.0426 41.1197 18.2188C39.4435 17.3949 37.4975 16.983 35.2816 16.983C32.9521 16.983 30.8356 17.3949 28.9322 18.2188C27.0572 19.0426 25.5657 20.2074 24.4577 21.7131C23.3498 23.2187 22.7674 24.9659 22.7106 26.9545H2.55433C2.61115 21.7557 4.06001 17.1818 6.90092 13.233C9.74183 9.25568 13.6055 6.14488 18.4918 3.90057C23.4066 1.65625 29.0032 0.534088 35.2816 0.534088C41.5316 0.534088 47.0288 1.62784 51.7731 3.81534C56.5174 6.00284 60.2106 8.98579 62.8526 12.7642C65.4947 16.5142 66.8157 20.7614 66.8157 25.5057C66.8441 30.4205 65.239 34.4687 62.0004 37.6506C58.7901 40.8324 54.6566 42.7926 49.5998 43.5312V44.2131C56.3612 45.0085 61.4606 47.196 64.8981 50.7756C68.364 54.3551 70.0827 58.8295 70.0543 64.1989C70.0543 69.2557 68.5629 73.7443 65.5799 77.6648C62.6254 81.5568 58.506 84.625 53.2219 86.8693C47.9663 89.0852 41.9293 90.1932 35.1112 90.1932Z" fill="url(#paint0_linear_1_3703)"/>
<defs>
<linearGradient id="paint0_linear_1_3703" x1="35.5" y1="-27" x2="164.74" y2="71.3295" gradientUnits="userSpaceOnUse">
<stop stop-color="#8BD7DC"/>
<stop offset="1" stop-color="#1246A9"/>
</linearGradient>
</defs>
</svg>
